<?xml version="1.0" standalone="no"?>
<svg viewBox="0 0 200 200" xmlns="http://www.w3.org/2000/svg">
  <path fill="#FF0066" d="M17.3,-38.5C22.3,-27,26.3,-22.2,29.5,-16.9C32.8,-11.7,35.2,-5.8,44.6,5.4C53.9,16.6,70,33.1,69.1,42.5C68.2,51.9,50.3,54,36,51.9C21.6,49.8,10.8,43.4,1.5,40.8C-7.8,38.1,-15.5,39.3,-24.3,38.1C-33,37,-42.6,33.6,-55,26.9C-67.4,20.1,-82.5,10.1,-81.4,0.7C-80.2,-8.7,-62.8,-17.5,-52.6,-28C-42.4,-38.5,-39.4,-50.8,-31.9,-60.9C-24.3,-71,-12.1,-78.8,-3,-73.6C6.1,-68.3,12.2,-50,17.3,-38.5Z" transform="translate(100 100)" />
</svg>
